<svg width="500" height="110" viewBox="0 0 500 110" fill="none" xmlns="http://www.w3.org/2000/svg">
<path d="M408.273 71.3993C405.413 71.3993 402.675 70.9981 400.058 70.1958C397.442 69.3586 395.366 68.2946 393.831 67.0039L396.186 61.719C397.651 62.8701 399.465 63.8294 401.628 64.5969C403.791 65.3643 406.006 65.7481 408.273 65.7481C410.192 65.7481 411.744 65.5388 412.93 65.1201C414.116 64.7015 414.989 64.1434 415.547 63.4457C416.105 62.7132 416.384 61.8934 416.384 60.9864C416.384 59.8701 415.983 58.9806 415.18 58.3178C414.378 57.6201 413.332 57.0794 412.041 56.6957C410.785 56.2771 409.372 55.8933 407.802 55.5445C406.268 55.1956 404.715 54.7945 403.145 54.341C401.611 53.8526 400.198 53.2421 398.907 52.5096C397.651 51.7421 396.622 50.7305 395.82 49.4747C395.017 48.2188 394.616 46.6142 394.616 44.6607C394.616 42.6723 395.14 40.8583 396.186 39.2188C397.267 37.5443 398.89 36.2188 401.052 35.242C403.25 34.2304 406.023 33.7245 409.372 33.7245C411.57 33.7245 413.75 34.0036 415.913 34.5618C418.076 35.1199 419.96 35.9222 421.564 36.9688L419.419 42.2537C417.779 41.2769 416.087 40.5618 414.343 40.1083C412.599 39.6199 410.925 39.3758 409.32 39.3758C407.436 39.3758 405.901 39.6025 404.715 40.056C403.564 40.5095 402.709 41.1025 402.151 41.8351C401.628 42.5676 401.366 43.4049 401.366 44.3467C401.366 45.463 401.75 46.37 402.518 47.0677C403.32 47.7305 404.349 48.2537 405.605 48.6375C406.895 49.0212 408.326 49.4049 409.895 49.7886C411.465 50.1375 413.018 50.5386 414.553 50.9921C416.122 51.4456 417.535 52.0386 418.791 52.7712C420.082 53.5038 421.111 54.498 421.878 55.7538C422.68 57.0096 423.082 58.5968 423.082 60.5155C423.082 62.469 422.541 64.2829 421.46 65.9574C420.413 67.5969 418.791 68.9225 416.593 69.9341C414.396 70.9109 411.622 71.3993 408.273 71.3993ZM429.827 70.876V34.2478H444.897C448.141 34.2478 450.914 34.7711 453.217 35.8176C455.554 36.8641 457.35 38.3641 458.606 40.3176C459.862 42.2711 460.49 44.5909 460.49 47.277C460.49 49.963 459.862 52.2828 458.606 54.2363C457.35 56.1898 455.554 57.6899 453.217 58.7364C450.914 59.7829 448.141 60.3062 444.897 60.3062H433.594L436.629 57.1143V70.876H429.827ZM436.629 57.8468L433.594 54.5503H444.583C447.583 54.5503 449.833 53.9224 451.333 52.6666C452.868 51.3758 453.635 49.5793 453.635 47.277C453.635 44.9398 452.868 43.1432 451.333 41.8874C449.833 40.6316 447.583 40.0037 444.583 40.0037H433.594L436.629 36.6548V57.8468ZM460.263 70.876L476.746 34.2478H483.443L499.978 70.876H492.862L478.682 37.8583H481.403L467.275 70.876H460.263ZM467.85 62.3992L469.682 57.0619H489.461L491.292 62.3992H467.85Z" fill="#CD0000"/>
<path fill-rule="evenodd" clip-rule="evenodd" d="M99.229 109.768C48.109 109.768 0 85.227 0 55C0 24.773 48.109 0.231995 99.229 0.231995L107.021 0.423996C59.545 2.765 22.191 26.323 22.191 55C22.191 83.677 59.545 107.235 107.021 109.576L99.229 109.768Z" fill="#003162"/>
<path fill-rule="evenodd" clip-rule="evenodd" d="M129.74 109.768C78.62 109.768 30.511 85.227 30.511 55C30.511 24.773 78.62 0.231995 129.74 0.231995L137.532 0.423996C90.056 2.765 52.702 26.323 52.702 55C52.702 83.677 90.056 107.235 137.532 109.576L129.74 109.768Z" fill="#CD0000"/>
<path d="M81.1954 71.5476C78.6259 71.5476 76.2331 71.1301 74.017 70.295C71.833 69.4278 69.922 68.2234 68.2839 66.6817C66.678 65.108 65.4254 63.2612 64.5261 61.1414C63.6268 59.0216 63.1772 56.7091 63.1772 54.2039C63.1772 51.6987 63.6268 49.3862 64.5261 47.2664C65.4254 45.1466 66.6941 43.3159 68.3321 41.7742C69.9701 40.2004 71.8812 38.996 74.0652 38.1609C76.2492 37.2937 78.642 36.8602 81.2436 36.8602C84.0057 36.8602 86.527 37.3419 88.8074 38.3055C91.0877 39.2369 93.0148 40.634 94.5886 42.4969L90.5417 46.3029C89.3212 44.986 87.9562 44.0064 86.4467 43.3641C84.9371 42.6896 83.2991 42.3523 81.5326 42.3523C79.7661 42.3523 78.1442 42.6414 76.6667 43.2195C75.2214 43.7976 73.9528 44.6167 72.8607 45.6766C71.8009 46.7364 70.9658 47.9891 70.3555 49.4344C69.7774 50.8797 69.4884 52.4695 69.4884 54.2039C69.4884 55.9383 69.7774 57.5281 70.3555 58.9734C70.9658 60.4187 71.8009 61.6713 72.8607 62.7312C73.9528 63.7911 75.2214 64.6101 76.6667 65.1883C78.1442 65.7664 79.7661 66.0554 81.5326 66.0554C83.2991 66.0554 84.9371 65.7343 86.4467 65.0919C87.9562 64.4174 89.3212 63.4057 90.5417 62.0567L94.5886 65.9109C93.0148 67.7416 91.0877 69.1388 88.8074 70.1023C86.527 71.0659 83.9896 71.5476 81.1954 71.5476ZM111.116 71.4031C108.257 71.4031 105.752 70.841 103.6 69.7169C101.481 68.5607 99.8265 66.9869 98.6381 64.9955C97.4819 63.0042 96.9037 60.7399 96.9037 58.2026C96.9037 55.6331 97.4658 53.3688 98.5899 51.4096C99.7462 49.4183 101.32 47.8606 103.311 46.7364C105.335 45.6123 107.631 45.0503 110.201 45.0503C112.706 45.0503 114.938 45.5963 116.897 46.6883C118.856 47.7803 120.398 49.3219 121.522 51.3133C122.646 53.3046 123.208 55.6492 123.208 58.3471C123.208 58.6041 123.192 58.8931 123.16 59.2143C123.16 59.5355 123.144 59.8406 123.112 60.1297H101.673V56.131H119.932L117.572 57.3836C117.604 55.9061 117.299 54.6054 116.656 53.4812C116.014 52.3571 115.131 51.4739 114.007 50.8315C112.915 50.1891 111.646 49.868 110.201 49.868C108.723 49.868 107.422 50.1891 106.298 50.8315C105.206 51.4739 104.339 52.3732 103.697 53.5294C103.086 54.6535 102.781 55.9864 102.781 57.5281V58.4916C102.781 60.0333 103.135 61.3983 103.841 62.5867C104.548 63.7751 105.543 64.6904 106.828 65.3328C108.113 65.9751 109.59 66.2963 111.26 66.2963C112.706 66.2963 114.007 66.0715 115.163 65.6219C116.319 65.1722 117.347 64.4656 118.246 63.5021L121.474 67.2117C120.318 68.5607 118.856 69.6045 117.09 70.3432C115.356 71.0498 113.364 71.4031 111.116 71.4031ZM143.591 45.0503C145.646 45.0503 147.477 45.4517 149.083 46.2547C150.721 47.0576 152.006 48.2942 152.937 49.9643C153.868 51.6023 154.334 53.7221 154.334 56.3237V71.0659H148.312V57.0945C148.312 54.8141 147.766 53.1119 146.674 51.9877C145.614 50.8636 144.121 50.3015 142.194 50.3015C140.78 50.3015 139.528 50.5906 138.436 51.1687C137.344 51.7469 136.493 52.614 135.882 53.7703C135.304 54.8944 135.015 56.3237 135.015 58.0581V71.0659H128.993V45.3393H134.726V52.2768L133.714 50.157C134.614 48.519 135.914 47.2664 137.617 46.3992C139.351 45.4999 141.342 45.0503 143.591 45.0503ZM171.657 71.4031C168.831 71.4031 166.647 70.6804 165.105 69.2351C163.563 67.7577 162.793 65.5897 162.793 62.7312V39.6544H168.815V62.5867C168.815 63.8072 169.12 64.7547 169.73 65.4291C170.372 66.1036 171.256 66.4409 172.38 66.4409C173.729 66.4409 174.853 66.0876 175.752 65.381L177.438 69.6687C176.732 70.2468 175.865 70.6804 174.837 70.9695C173.809 71.2586 172.749 71.4031 171.657 71.4031ZM158.553 50.3497V45.532H175.704V50.3497H158.553ZM182.392 71.0659V45.3393H188.125V52.4213L187.451 50.3497C188.222 48.6154 189.426 47.2985 191.064 46.3992C192.734 45.4999 194.806 45.0503 197.279 45.0503V50.7833C197.022 50.7191 196.781 50.687 196.556 50.687C196.332 50.6548 196.107 50.6388 195.882 50.6388C193.602 50.6388 191.787 51.3133 190.438 52.6622C189.089 53.9791 188.415 55.9543 188.415 58.588V71.0659H182.392ZM216.403 71.0659V65.8627L216.066 64.7547V55.6492C216.066 53.8827 215.536 52.5177 214.476 51.5542C213.416 50.5585 211.81 50.0607 209.658 50.0607C208.213 50.0607 206.784 50.2855 205.371 50.7351C203.99 51.1848 202.817 51.8111 201.854 52.614L199.493 48.2299C200.874 47.17 202.512 46.3831 204.407 45.8693C206.334 45.3233 208.325 45.0503 210.381 45.0503C214.107 45.0503 216.981 45.9496 219.005 47.7482C221.06 49.5147 222.088 52.2607 222.088 55.9864V71.0659H216.403ZM208.309 71.4031C206.382 71.4031 204.696 71.0819 203.251 70.4396C201.805 69.7651 200.681 68.8497 199.878 67.6935C199.108 66.5051 198.722 65.1722 198.722 63.6948C198.722 62.2495 199.059 60.9487 199.734 59.7924C200.44 58.6362 201.581 57.7208 203.154 57.0463C204.728 56.3719 206.816 56.0346 209.417 56.0346H216.885V60.0333H209.851C207.795 60.0333 206.414 60.3706 205.708 61.045C205.001 61.6874 204.648 62.4903 204.648 63.4539C204.648 64.5459 205.082 65.4131 205.949 66.0554C206.816 66.6978 208.02 67.019 209.562 67.019C211.039 67.019 212.356 66.6817 213.513 66.0073C214.701 65.3328 215.552 64.3371 216.066 63.0203L217.078 66.6336C216.499 68.1431 215.456 69.3154 213.946 70.1505C212.469 70.9856 210.59 71.4031 208.309 71.4031ZM229.817 71.0659V35.3185H235.839V71.0659H229.817Z" fill="#003162"/>
<path d="M259.547 71.5476C256.977 71.5476 254.585 71.1301 252.368 70.295C250.184 69.4278 248.273 68.2234 246.635 66.6817C245.029 65.108 243.777 63.2612 242.878 61.1414C241.978 59.0216 241.529 56.7091 241.529 54.2039C241.529 51.6987 241.978 49.3862 242.878 47.2664C243.777 45.1466 245.046 43.3159 246.684 41.7742C248.322 40.2004 250.233 38.996 252.417 38.1609C254.601 37.2937 256.993 36.8602 259.595 36.8602C262.357 36.8602 264.878 37.3419 267.159 38.3055C269.439 39.2369 271.366 40.634 272.94 42.4969L268.893 46.3029C267.673 44.986 266.308 44.0064 264.798 43.3641C263.289 42.6896 261.651 42.3523 259.884 42.3523C258.118 42.3523 256.496 42.6414 255.018 43.2195C253.573 43.7976 252.304 44.6167 251.212 45.6766C250.152 46.7364 249.317 47.9891 248.707 49.4344C248.129 50.8797 247.84 52.4695 247.84 54.2039C247.84 55.9383 248.129 57.5281 248.707 58.9734C249.317 60.4187 250.152 61.6713 251.212 62.7312C252.304 63.7911 253.573 64.6101 255.018 65.1883C256.496 65.7664 258.118 66.0554 259.884 66.0554C261.651 66.0554 263.289 65.7343 264.798 65.0919C266.308 64.4174 267.673 63.4057 268.893 62.0567L272.94 65.9109C271.366 67.7416 269.439 69.1388 267.159 70.1023C264.878 71.0659 262.341 71.5476 259.547 71.5476ZM278.363 71.0659V35.3185H284.385V71.0659H278.363ZM292.289 71.0659V45.3393H298.311V71.0659H292.289ZM295.324 41.0997C294.2 41.0997 293.269 40.7464 292.53 40.0398C291.823 39.3332 291.47 38.4821 291.47 37.4865C291.47 36.4587 291.823 35.6075 292.53 34.9331C293.269 34.2265 294.2 33.8732 295.324 33.8732C296.448 33.8732 297.364 34.2104 298.07 34.8849C298.809 35.5273 299.178 36.3463 299.178 37.3419C299.178 38.4018 298.825 39.3011 298.119 40.0398C297.412 40.7464 296.481 41.0997 295.324 41.0997ZM338.687 45.0503C340.742 45.0503 342.557 45.4517 344.131 46.2547C345.737 47.0576 346.989 48.2942 347.889 49.9643C348.788 51.6023 349.237 53.7221 349.237 56.3237V71.0659H343.215V57.0945C343.215 54.8141 342.717 53.1119 341.722 51.9877C340.726 50.8636 339.297 50.3015 337.434 50.3015C336.117 50.3015 334.945 50.5906 333.917 51.1687C332.921 51.7469 332.135 52.598 331.556 53.7221C331.01 54.8463 330.737 56.2755 330.737 58.0099V71.0659H324.715V57.0945C324.715 54.8141 324.218 53.1119 323.222 51.9877C322.226 50.8636 320.797 50.3015 318.934 50.3015C317.617 50.3015 316.445 50.5906 315.417 51.1687C314.422 51.7469 313.635 52.598 313.056 53.7221C312.51 54.8463 312.237 56.2755 312.237 58.0099V71.0659H306.215V45.3393H311.948V52.1805L310.937 50.157C311.804 48.4869 313.056 47.2182 314.695 46.351C316.365 45.4838 318.26 45.0503 320.379 45.0503C322.788 45.0503 324.876 45.6444 326.642 46.8328C328.441 48.0212 329.629 49.8198 330.208 52.2286L327.847 51.4096C328.682 49.4825 330.063 47.9409 331.99 46.7846C333.917 45.6284 336.149 45.0503 338.687 45.0503ZM372.783 71.0659V65.8627L372.446 64.7547V55.6492C372.446 53.8827 371.916 52.5177 370.856 51.5542C369.796 50.5585 368.19 50.0607 366.038 50.0607C364.593 50.0607 363.164 50.2855 361.751 50.7351C360.37 51.1848 359.197 51.8111 358.234 52.614L355.873 48.2299C357.254 47.17 358.892 46.3831 360.787 45.8693C362.714 45.3233 364.706 45.0503 366.761 45.0503C370.487 45.0503 373.361 45.9496 375.385 47.7482C377.44 49.5147 378.468 52.2607 378.468 55.9864V71.0659H372.783ZM364.689 71.4031C362.762 71.4031 361.076 71.0819 359.631 70.4396C358.186 69.7651 357.061 68.8497 356.259 67.6935C355.488 66.5051 355.102 65.1722 355.102 63.6948C355.102 62.2495 355.439 60.9487 356.114 59.7924C356.821 58.6362 357.961 57.7208 359.535 57.0463C361.108 56.3719 363.196 56.0346 365.798 56.0346H373.265V60.0333H366.231C364.176 60.0333 362.795 60.3706 362.088 61.045C361.381 61.6874 361.028 62.4903 361.028 63.4539C361.028 64.5459 361.462 65.4131 362.329 66.0554C363.196 66.6978 364.4 67.019 365.942 67.019C367.42 67.019 368.736 66.6817 369.893 66.0073C371.081 65.3328 371.932 64.3371 372.446 63.0203L373.458 66.6336C372.88 68.1431 371.836 69.3154 370.326 70.1505C368.849 70.9856 366.97 71.4031 364.689 71.4031Z" fill="#CD0000"/>
</svg>
