<?xml version="1.0" encoding="UTF-8" standalone="no"?><!DOCTYPE svg PUBLIC "-//W3C//DTD SVG 1.1//EN" "http://www.w3.org/Graphics/SVG/1.1/DTD/svg11.dtd"><svg width="100%" height="100%" viewBox="0 0 1563 1245" version="1.1" xmlns="http://www.w3.org/2000/svg" xmlns:xlink="http://www.w3.org/1999/xlink" xml:space="preserve" xmlns:serif="http://www.serif.com/" style="fill-rule:evenodd;clip-rule:evenodd;stroke-linejoin:round;stroke-miterlimit:2;"><path d="M1127.34,1244.43c-580.774,0 -1127.34,-278.805 -1127.34,-622.215c-0,-343.411 546.561,-622.216 1127.34,-622.216l88.531,2.177c-539.378,26.598 -963.756,294.245 -963.756,620.039c-0,325.793 424.378,593.44 963.756,620.038l-88.531,2.177Z" style="fill:#003162;"/><path d="M1473.97,1244.43c-580.773,0 -1127.33,-278.805 -1127.33,-622.215c-0,-343.411 546.561,-622.216 1127.33,-622.216l88.532,2.177c-539.379,26.598 -963.757,294.245 -963.757,620.039c0,325.793 424.378,593.44 963.757,620.038l-88.532,2.177Z" style="fill:#cd0000;"/></svg>